<svg width="1920" height="137" viewBox="0 0 1920 137" fill="none" xmlns="http://www.w3.org/2000/svg">
<path d="M0 72.5C0 72.5 266.819 152.375 960 72.5C1653.18 -7.37492 1920 72.5 1920 72.5" stroke="#00B2FF" stroke-width="2"/>
<path d="M641 103C641 115.703 630.703 126 618 126C605.297 126 595 115.703 595 103C595 90.2975 605.297 80 618 80C630.703 80 641 90.2975 641 103Z" fill="white" stroke="#FFDC23" stroke-width="2"/>
<path d="M92 88C92 98.4934 83.4934 107 73 107C62.5066 107 54 98.4934 54 88C54 77.5066 62.5066 69 73 69C83.4934 69 92 77.5066 92 88Z" fill="white" stroke="#FFDC23" stroke-width="2"/>
<path d="M1144 63C1144 72.3888 1136.39 80 1127 80C1117.61 80 1110 72.3888 1110 63C1110 53.6112 1117.61 46 1127 46C1136.39 46 1144 53.6112 1144 63Z" fill="white" stroke="#FFDC23" stroke-width="2"/>
<path d="M1658 36.5C1658 56.1061 1642.11 72 1622.5 72C1602.89 72 1587 56.1061 1587 36.5C1587 16.8939 1602.89 1 1622.5 1C1642.11 1 1658 16.8939 1658 36.5Z" fill="white" stroke="#FFDC23" stroke-width="2"/>
<path d="M1384 37C1384 46.9411 1375.94 55 1366 55C1356.06 55 1348 46.9411 1348 37C1348 27.0589 1356.06 19 1366 19C1375.94 19 1384 27.0589 1384 37Z" fill="white" stroke="#00B2FF" stroke-width="2"/>
<path d="M900 88C900 98.4934 891.493 107 881 107C870.507 107 862 98.4934 862 88C862 77.5066 870.507 69 881 69C891.493 69 900 77.5066 900 88Z" fill="white" stroke="#00B2FF" stroke-width="2"/>
<path d="M374 107.5C374 123.24 361.24 136 345.5 136C329.76 136 317 123.24 317 107.5C317 91.7599 329.76 79 345.5 79C361.24 79 374 91.7599 374 107.5Z" fill="white" stroke="#00B2FF" stroke-width="2"/>
</svg>
