<svg width="1920" height="291" viewBox="0 0 1920 291" fill="none" xmlns="http://www.w3.org/2000/svg">
<path d="M1916.83 72.4448C1916.83 72.4448 1657.81 174.83 960.342 154.485C262.871 134.141 3.85366 236.526 3.85366 236.526" stroke="#00B2FF" stroke-width="2"/>
<path d="M1280.78 157.612C1281.87 170.268 1293.01 179.648 1305.66 178.563C1318.32 177.477 1327.7 166.337 1326.61 153.681C1325.53 141.025 1314.39 131.645 1301.73 132.731C1289.08 133.816 1279.7 144.956 1280.78 157.612Z" fill="white" stroke="#FFDC23" stroke-width="2"/>
<path d="M1826.49 95.7502C1827.39 106.205 1836.59 113.954 1847.05 113.057C1857.5 112.16 1865.25 102.958 1864.35 92.5028C1863.46 82.0477 1854.25 74.2992 1843.8 75.196C1833.34 76.0928 1825.59 85.2952 1826.49 95.7502Z" fill="white" stroke="#FFDC23" stroke-width="2"/>
<path d="M776.203 160.745C777.005 170.099 785.239 177.032 794.594 176.23C803.948 175.427 810.881 167.193 810.079 157.839C809.276 148.484 801.043 141.552 791.688 142.354C782.334 143.156 775.401 151.39 776.203 160.745Z" fill="white" stroke="#FFDC23" stroke-width="2"/>
<path d="M261.819 178.268C263.494 197.802 280.688 212.279 300.223 210.604C319.757 208.928 334.235 191.734 332.559 172.2C330.883 152.666 313.689 138.188 294.155 139.864C274.621 141.539 260.143 158.733 261.819 178.268Z" fill="white" stroke="#FFDC23" stroke-width="2"/>
</svg>
