<svg width="1920" height="119" viewBox="0 0 1920 119" fill="none" xmlns="http://www.w3.org/2000/svg">
<path d="M0 54.5C0 54.5 266.819 134.375 960 54.5C1653.18 -25.3749 1920 54.5 1920 54.5" stroke="#00B2FF" stroke-width="2"/>
<path d="M1384 19C1384 28.9411 1375.94 37 1366 37C1356.06 37 1348 28.9411 1348 19C1348 9.05888 1356.06 1 1366 1C1375.94 1 1384 9.05887 1384 19Z" fill="white" stroke="#00B2FF" stroke-width="2"/>
<path d="M900 70C900 80.4934 891.493 89 881 89C870.507 89 862 80.4934 862 70C862 59.5066 870.507 51 881 51C891.493 51 900 59.5066 900 70Z" fill="white" stroke="#00B2FF" stroke-width="2"/>
<path d="M374 89.5C374 105.24 361.24 118 345.5 118C329.76 118 317 105.24 317 89.5C317 73.7599 329.76 61 345.5 61C361.24 61 374 73.7599 374 89.5Z" fill="white" stroke="#00B2FF" stroke-width="2"/>
</svg>
