<svg width="320" height="37" viewBox="0 0 320 37" fill="none" xmlns="http://www.w3.org/2000/svg">
<path d="M338 21C338 21 289.5 -1.49998 163.5 21C37.5 43.5 -11 21 -11 21" stroke="#00B2FF"/>
<path d="M263.5 11C263.5 5.20101 268.201 0.5 274 0.5C279.799 0.5 284.5 5.20101 284.5 11C284.5 16.799 279.799 21.5 274 21.5C268.201 21.5 263.5 16.799 263.5 11Z" fill="white" stroke="#FFDC23"/>
<path d="M43.5 31C43.5 27.9624 45.9624 25.5 49 25.5C52.0376 25.5 54.5 27.9624 54.5 31C54.5 34.0376 52.0376 36.5 49 36.5C45.9624 36.5 43.5 34.0376 43.5 31Z" fill="white" stroke="#00B2FF"/>
</svg>
